<svg width="380" height="500" viewBox="0 0 380 500" fill="none" xmlns="http://www.w3.org/2000/svg" xmlns:xlink="http://www.w3.org/1999/xlink">
<path fill-rule="evenodd" clip-rule="evenodd" d="M0 25.0002C0 11.1931 11.1929 0.000244141 25 0.000244141H355C368.807 0.000244141 380 11.1931 380 25.0002V390C380 406.569 366.569 420 350 420H330C313.431 420 300 433.432 300 450V470C300 486.569 286.569 500 270 500H110C93.4315 500 80 486.569 80 470V450C80 433.432 66.5685 420 50 420H30C13.4315 420 0 406.569 0 390V25.0002Z" fill="#50B4D6"/>
</svg>
