<svg width="17" height="18" viewBox="0 0 17 18" fill="none" xmlns="http://www.w3.org/2000/svg">
<path d="M1 5.25V3.375C1 2.87772 1.19754 2.40081 1.54917 2.04917C1.90081 1.69754 2.37772 1.5 2.875 1.5H4.75M1 12.75V14.625C1 15.1223 1.19754 15.5992 1.54917 15.9508C1.90081 16.3025 2.37772 16.5 2.875 16.5H4.75M12.25 1.5H14.125C14.6223 1.5 15.0992 1.69754 15.4508 2.04917C15.8025 2.40081 16 2.87772 16 3.375V5.25M12.25 16.5H14.125C14.6223 16.5 15.0992 16.3025 15.4508 15.9508C15.8025 15.5992 16 15.1223 16 14.625V12.75M5.6875 7.125H5.69688M11.3125 7.125H11.3219M6.15625 11.8125C6.46176 12.1243 6.82642 12.372 7.22887 12.5411C7.63132 12.7102 8.06346 12.7974 8.5 12.7974C8.93654 12.7974 9.36868 12.7102 9.77113 12.5411C10.1736 12.372 10.5382 12.1243 10.8438 11.8125" stroke="white" stroke-width="2" stroke-linecap="round" stroke-linejoin="round"/>

</svg>
