<svg width="102" height="95" viewBox="0 0 102 95" fill="none" xmlns="http://www.w3.org/2000/svg">
<path d="M3.25999 90.3667C4.6775 91.8668 6.40695 93.0376 8.32632 93.7965C10.2457 94.5553 12.3082 94.8836 14.3683 94.7583C20.408 94.4367 26.3248 92.9268 31.78 90.315C39.9526 93.9773 49.0089 95.2017 57.8606 93.8411C66.7122 92.4804 74.9827 88.5926 81.678 82.6448C88.3734 76.697 93.2087 68.9424 95.603 60.3127C97.9973 51.683 97.8487 42.5456 95.175 33.9983C101.943 22.4767 104.217 11.9883 98.6367 5.68501C97.0145 3.80374 94.9558 2.349 92.6408 1.44824C90.3259 0.547477 87.8253 0.228184 85.3583 0.518338C80.4686 1.26422 75.8958 3.39819 72.1833 6.66667C63.849 2.43212 54.4317 0.807969 45.1604 2.00615C35.8891 3.20432 27.1941 7.16919 20.2101 13.3834C13.2261 19.5976 8.27726 27.7727 6.00934 36.8418C3.74143 45.911 4.25975 55.4532 7.49666 64.2233C2.01999 70.475 -3.09501 83.2367 3.25999 90.3667ZM11.01 83.5467C9.87333 82.255 11.01 78.0183 12.9217 74.4533C15.2356 77.7801 17.9612 80.8007 21.0333 83.4434C15.7117 84.9933 12.1983 84.89 11.01 83.5467ZM85.9783 56.835C83.6332 66.1129 77.7066 74.0832 69.4967 79C63.8993 82.3342 57.515 84.1176 51 84.1667C48.8477 84.1518 46.7019 83.9269 44.5933 83.495C52.6997 78.5249 60.3427 72.8358 67.43 66.4967C74.5663 60.1953 81.1359 53.2799 87.0633 45.83C87.2763 49.5324 86.9102 53.2454 85.9783 56.835ZM86.4433 10.9033C87.2716 10.767 88.121 10.8476 88.9088 11.1374C89.6966 11.4271 90.3958 11.9161 90.9383 12.5567C92.1266 13.9 91.765 17.4133 89.595 22.5283C87.2649 18.9671 84.4671 15.7348 81.2767 12.9183C82.8327 11.8805 84.5955 11.193 86.4433 10.9033ZM15.97 39.2683C17.103 34.649 19.1437 30.3012 21.9733 26.4781C24.8029 22.655 28.3648 19.4331 32.4517 17C38.054 13.6334 44.4639 11.8479 51 11.8333C57.2591 11.7902 63.4192 13.3957 68.8609 16.4884C74.3027 19.5811 78.8343 24.0521 82 29.4517C82.687 30.5417 83.2914 31.6815 83.8083 32.8617C77.1648 42.392 69.3735 51.0684 60.61 58.695C51.9961 66.6138 42.4338 73.4342 32.1417 79C25.5998 74.9813 20.5066 68.985 17.5993 61.8792C14.6919 54.7734 14.1213 46.9267 15.97 39.475V39.2683Z" fill="white"/>
</svg>
